<svg xmlns="http://www.w3.org/2000/svg" width="89" height="82" viewBox="0 0 89 82" fill="none"><g clip-path="url(#clip0_44_2)"><path d="M13.9635 72.6502H0V20.6834C0 19.1997 0.592459 17.7768 1.64704 16.7276C2.70163 15.6785 4.13195 15.0891 5.62336 15.0891H16.4426C17.1004 15.0891 17.7313 15.3491 18.1965 15.8118C18.6616 16.2746 18.923 16.9022 18.923 17.5566V67.7127C18.923 69.0216 18.4006 70.2769 17.4706 71.2027C16.5406 72.1286 15.2791 72.6492 13.9635 72.6502Z" fill="url(#paint0_linear_44_2)"></path><path d="M39.7933 53.9689H49.4379C51.363 53.9689 53.2478 53.4207 54.8697 52.389C56.4915 51.3573 57.7825 49.8852 58.5901 48.1467L73.2016 16.6939C73.2824 16.5178 73.3174 16.3243 73.3035 16.1312C73.2896 15.9381 73.2272 15.7516 73.122 15.5887C73.0168 15.4258 72.8721 15.2918 72.7014 15.199C72.5306 15.1062 72.3391 15.0575 72.1445 15.0574H62.2941C60.4311 15.0574 58.6071 15.588 57.0376 16.5865C55.4681 17.585 54.2187 19.0096 53.4371 20.6919L38.7387 52.3275C38.6566 52.5036 38.6204 52.6975 38.6335 52.8912C38.6466 53.0849 38.7085 53.2723 38.8137 53.4358C38.9188 53.5994 39.0636 53.734 39.2349 53.8272C39.4061 53.9204 39.5982 53.9691 39.7933 53.9689Z" fill="url(#paint1_linear_44_2)"></path><path d="M88.8947 20.6529V72.8062H75.235C73.7434 72.8059 72.3129 72.2162 71.2582 71.1669C70.2034 70.1176 69.6108 68.6946 69.6104 67.2107V21.1928C69.2613 17.7553 65.9775 15.0574 61.9722 15.0574H83.2701C84.7619 15.0574 86.1925 15.647 87.2473 16.6963C88.3021 17.7457 88.8947 19.1689 88.8947 20.6529Z" fill="url(#paint2_linear_44_2)"></path><path d="M48.7887 54.0444H33.1937C33.1937 54.0444 30.3888 54.1395 28.7524 51.2601L14.8991 21.456C14.8991 21.456 12.3355 15.6326 8.37305 15.0903H24.1126C24.1126 15.0903 29.1676 14.5176 31.2168 18.2098L48.6809 52.2751C48.6809 52.2751 49.2995 53.4693 50.5182 53.9079C50.3749 53.9384 50.2071 53.9689 50.0173 53.9945C49.8862 54.0115 49.6927 54.0335 49.4575 54.0444C49.2713 54.0554 49.0447 54.0578 48.7887 54.0444Z" fill="url(#paint3_linear_44_2)"></path><path d="M11.5028 10.8108C14.5037 10.8108 16.9363 8.39074 16.9363 5.40542C16.9363 2.42009 14.5037 0 11.5028 0C8.502 0 6.06934 2.42009 6.06934 5.40542C6.06934 8.39074 8.502 10.8108 11.5028 10.8108Z" fill="url(#paint4_linear_44_2)"></path><path d="M77.3368 10.8108C80.3377 10.8108 82.7703 8.39074 82.7703 5.40542C82.7703 2.42009 80.3377 0 77.3368 0C74.336 0 71.9033 2.42009 71.9033 5.40542C71.9033 8.39074 74.336 10.8108 77.3368 10.8108Z" fill="url(#paint5_linear_44_2)"></path><path d="M5.92464 76.8163V81.9488H4.66793V78.8708L3.51411 81.9488H2.49992L1.33874 78.8635V81.9488H0.0820312V76.8163H1.56657L3.01436 80.3696L4.44745 76.8163H5.92464Z" fill="#231F20"></path><path d="M10.4113 76.8163V81.9488H9.15088V76.8163H10.4113Z" fill="#231F20"></path><path d="M16.2721 81.9488L15.1991 80.0114H14.8978V81.9488H13.6411V76.8164H15.7503C16.1088 76.8064 16.4647 76.879 16.7902 77.0284C17.0586 77.1532 17.2827 77.3558 17.4333 77.6096C17.5765 77.8601 17.6501 78.144 17.6464 78.4321C17.6507 78.7599 17.5489 79.0803 17.3561 79.346C17.1434 79.6272 16.8412 79.8282 16.4987 79.9163L17.6893 81.9488H16.2721ZM14.8978 79.1267H15.6781C15.8663 79.1411 16.0527 79.0806 16.1962 78.9585C16.2561 78.8953 16.3024 78.8205 16.3321 78.7388C16.3618 78.657 16.3743 78.5701 16.3689 78.4833C16.3738 78.3988 16.361 78.3142 16.3313 78.2349C16.3016 78.1556 16.2556 78.0833 16.1962 78.0227C16.0527 77.9006 15.8663 77.8401 15.6781 77.8545H14.8991L14.8978 79.1267Z" fill="#231F20"></path><path d="M23.9671 81.0422H22.0478L21.7391 81.9488H20.4175L22.2842 76.8163H23.7393L25.606 81.9488H24.2758L23.9671 81.0422ZM23.6401 80.0771L23.0007 78.1982L22.3687 80.0771H23.6401Z" fill="#231F20"></path><path d="M29.7509 76.8163V81.9488H28.4941V76.8163H29.7509Z" fill="#231F20"></path><path d="M38.1217 76.8163V81.9488H36.8687V76.8163H38.1217Z" fill="#231F20"></path><path d="M45.9703 81.9488H44.7136L42.6117 78.7806V81.9488H41.355V76.8163H42.6117L44.7136 79.9967V76.8163H45.9703V81.9488Z" fill="#231F20"></path><path d="M52.5627 76.8163V77.818H50.4645V78.9H52.0372V79.8749H50.4645V81.9464H49.2041V76.8163H52.5627Z" fill="#231F20"></path><path d="M56.6527 81.6637C56.2522 81.4431 55.9194 81.1183 55.69 80.7242C55.4563 80.3106 55.3335 79.8442 55.3335 79.3698C55.3335 78.8954 55.4563 78.4289 55.69 78.0154C55.9203 77.6228 56.2529 77.2995 56.6527 77.0795C57.0623 76.8588 57.5208 76.7432 57.9866 76.7432C58.4524 76.7432 58.9109 76.8588 59.3205 77.0795C59.7192 77.2984 60.0498 77.6221 60.2759 78.0154C60.506 78.4301 60.6267 78.8961 60.6267 79.3698C60.6267 79.8435 60.506 80.3095 60.2759 80.7242C60.0492 81.1179 59.7189 81.4427 59.3205 81.6637C58.9116 81.8844 58.4537 82.0001 57.9884 82.0001C57.5232 82.0001 57.0653 81.8844 56.6564 81.6637H56.6527ZM58.98 80.4451C59.2206 80.1345 59.3511 79.7534 59.3511 79.3612C59.3511 78.9691 59.2206 78.588 58.98 78.2774C58.8547 78.1424 58.7014 78.0361 58.5307 77.9661C58.36 77.896 58.176 77.8638 57.9915 77.8716C57.8062 77.8632 57.6212 77.8948 57.4493 77.9642C57.2775 78.0336 57.1227 78.1392 56.9957 78.2737C56.7507 78.5418 56.6282 78.9049 56.6282 79.3631C56.607 79.7584 56.7384 80.1468 56.9957 80.4488C57.1221 80.5843 57.2767 80.6908 57.4486 80.7608C57.6206 80.8309 57.8059 80.8629 57.9915 80.8546C58.1751 80.8622 58.3582 80.8299 58.5281 80.7601C58.6979 80.6902 58.8504 80.5844 58.9751 80.45L58.98 80.4451Z" fill="#231F20"></path><path d="M67.3568 76.8163V77.818H65.9899V81.9488H64.7332V77.818H63.3662V76.8163H67.3568Z" fill="#231F20"></path><path d="M71.5675 77.818V78.8562H73.2468V79.8212H71.5675V80.9472H73.471V81.9488H70.3071V76.8163H73.4673V77.818H71.5675Z" fill="#231F20"></path><path d="M76.7267 78.0191C76.9399 77.6292 77.2597 77.3073 77.649 77.0905C78.0591 76.8648 78.5216 76.7501 78.9902 76.7579C79.554 76.7444 80.1066 76.9157 80.563 77.2453C81.0004 77.5686 81.3099 78.0343 81.4375 78.5613H80.0559C79.9626 78.3589 79.8102 78.189 79.6186 78.0739C79.4239 77.9599 79.2014 77.9017 78.9755 77.9057C78.7986 77.8996 78.6226 77.9325 78.4599 78.002C78.2973 78.0715 78.1521 78.176 78.0348 78.3079C77.8011 78.6179 77.6747 78.995 77.6747 79.3826C77.6747 79.7702 77.8011 80.1473 78.0348 80.4573C78.1521 80.5892 78.2973 80.6937 78.4599 80.7632C78.6226 80.8327 78.7986 80.8656 78.9755 80.8595C79.2014 80.8635 79.4239 80.8053 79.6186 80.6913C79.8102 80.5761 79.9626 80.4063 80.0559 80.2039H81.4375C81.3102 80.7301 81.0006 81.1947 80.563 81.5162C80.1053 81.8423 79.553 82.0105 78.9902 81.9951C78.5216 82.0029 78.0591 81.8882 77.649 81.6625C77.2604 81.4465 76.9407 81.126 76.7267 80.7376C76.5094 80.3189 76.396 79.8545 76.396 79.3832C76.396 78.912 76.5094 78.4475 76.7267 78.0288V78.0191Z" fill="#231F20"></path><path d="M89 76.8163V81.9488H87.7433V79.8359H85.7835V81.9488H84.5317V76.8163H85.7885V78.8269H87.7482V76.8163H89Z" fill="#231F20"></path></g><defs><linearGradient id="paint0_linear_44_2" x1="9.46087" y1="72.6502" x2="9.46087" y2="15.0891" gradientUnits="userSpaceOnUse"><stop stop-color="#3A7BB7"></stop><stop offset="1" stop-color="#0F2D4F"></stop></linearGradient><linearGradient id="paint1_linear_44_2" x1="55.9701" y1="53.9689" x2="55.9701" y2="15.0574" gradientUnits="userSpaceOnUse"><stop stop-color="#F99D36"></stop><stop offset="1" stop-color="#F15B28"></stop></linearGradient><linearGradient id="paint2_linear_44_2" x1="75.4334" y1="72.8037" x2="75.4334" y2="15.0574" gradientUnits="userSpaceOnUse"><stop stop-color="#F15B28"></stop><stop offset="1" stop-color="#F99D36"></stop></linearGradient><linearGradient id="paint3_linear_44_2" x1="8.37305" y1="34.5564" x2="50.5207" y2="34.5564" gradientUnits="userSpaceOnUse"><stop stop-color="#3A7BB7"></stop><stop offset="1" stop-color="#0F2D4F"></stop></linearGradient><linearGradient id="paint4_linear_44_2" x1="11.5028" y1="10.8108" x2="11.5028" y2="0" gradientUnits="userSpaceOnUse"><stop stop-color="#3A7BB7"></stop><stop offset="1" stop-color="#0F2D4F"></stop></linearGradient><linearGradient id="paint5_linear_44_2" x1="77.3368" y1="10.8108" x2="77.3368" y2="0" gradientUnits="userSpaceOnUse"><stop stop-color="#F15B28"></stop><stop offset="1" stop-color="#F99D36"></stop></linearGradient><clipPath id="clip0_44_2"><rect width="89" height="82" fill="white"></rect></clipPath></defs></svg>